<?xml version="1.0" encoding="UTF-8"?>
<!DOCTYPE svg PUBLIC "-//W3C//DTD SVG 1.1//EN" "http://www.w3.org/Graphics/SVG/1.1/DTD/svg11.dtd">
<!-- Creator: CorelDRAW -->
<svg xmlns="http://www.w3.org/2000/svg" xml:space="preserve" width="2048px" height="2048px" style="shape-rendering:geometricPrecision; text-rendering:geometricPrecision; image-rendering:optimizeQuality; fill-rule:evenodd; clip-rule:evenodd"
viewBox="0 0 2048 2048"
 xmlns:xlink="http://www.w3.org/1999/xlink">
 <defs>
  <style type="text/css">
   <![CDATA[
    .fil2 {fill:none}
    .fil0 {fill:#212121;fill-rule:nonzero}
    .fil1 {fill:#66BB6A;fill-rule:nonzero}
   ]]>
  </style>
 </defs>
 <g id="Layer_x0020_1">
  <metadata id="CorelCorpID_0Corel-Layer"/>
  <g id="_475137864">
   <path id="_475138560" class="fil0" d="M1191.27 643.095c38.6386,46.1599 81.1406,91.3902 123.597,136.573 137.839,146.691 275.254,292.929 282.168,466.392 3.77717,94.8131 0.916536,154.67 -1.66299,208.657 -3.79725,79.4611 -6.97441,145.923 13.5461,295.474l0.0673229 -0.00944883c0.507874,3.70276 0.142913,7.32284 -0.938977,10.6547 -7.00158,29.067 -27.7063,35.4898 -58.5508,29.2429 -18.6095,-3.76772 -40.6146,-12.7453 -66.1158,-23.1496 -56.589,-23.0858 -132.01,-53.8536 -197.362,-38.6032 -27.1429,6.33426 -54.6378,15.1925 -82.3075,24.1051 -59.5193,19.174 -119.817,38.5925 -179.713,35.9587 -59.8937,2.63386 -120.188,-16.7847 -179.704,-35.9575 -12.8303,-4.13268 -25.6229,-8.25355 -41.1733,-12.9354 -92.4178,-27.8268 -186.406,6.53386 -249.88,29.7378 -22.2626,8.13898 -41.0717,15.0165 -56.8796,18.2173 -31.1103,6.3 -51.0449,0.0425197 -57.0012,-29.2654l-0.0968505 0.0200788c-0.679134,-3.35315 -0.62126,-6.68268 0.0590552,-9.8256 20.2453,-148.272 17.0811,-214.527 13.3004,-293.665 -2.57953,-53.987 -5.44016,-113.844 -1.66299,-208.657 4.52244,-113.44 33.7181,-217.004 95.7131,-320.473 60.0709,-100.261 150.923,-200.103 280.096,-308.626 10.9358,-104.436 -39.515,-127.344 -91.1918,-150.793 -63.4914,-28.8107 -128.404,-58.2662 -128.404,-181.142 0,-13.2543 10.7457,-24 24,-24 13.7516,0 27.9862,-0.93189 43.154,-1.92402 87.9733,-5.75906 204.445,-13.3725 333.278,116.479 147.442,24.4158 212.802,-28.9134 262.971,-69.854 43.5945,-35.576 77.9103,-63.5752 137.055,-43.389l-7.6878 22.6878 7.75158 -22.7138c7.71024,2.6315 13.2118,8.8004 15.313,16.0772 50.217,131.466 -24.4973,163.936 -107.647,200.041 -64.2898,27.9166 -135.07,58.6725 -124.09,164.665zm88.7209 169.387c-44.6351,-47.5016 -89.3174,-95.0564 -129.331,-143.23 -3.21614,-3.50197 -5.42835,-7.99016 -6.10158,-13.0618l23.791 -3.15709 -23.7189 3.09331c-19.5307,-147.177 70.3394,-186.202 151.792,-221.571 58.6182,-25.454 111.522,-48.4394 85.2768,-129.484 -29.0126,-4.58622 -52.2449,14.3658 -80.9375,37.7811 -58.1138,47.4225 -134.052,109.365 -306.887,78.8812 -5.59489,-0.467717 -11.0504,-2.88898 -15.2563,-7.24489l17.2665 -16.6689 -17.25 16.5933c-115.519,-119.658 -221.522,-112.72 -301.309,-107.497 -7.19646,0.470079 -14.2016,0.927166 -20.9587,1.29685 7.89804,72.9662 53.8536,93.8304 98.895,114.269 69.2292,31.4138 136.775,62.0882 118.123,207.722 -0.281103,6.51969 -3.20433,12.9036 -8.61261,17.4095l-15.365 -18.437 15.2811 18.3756c-128.789,107.326 -218.545,205.11 -276.956,302.597 -57.6248,96.1761 -84.7619,192.406 -88.9619,297.787 -3.68859,92.5631 -0.874016,151.433 1.66299,204.53 3.77008,78.8776 6.94371,145.33 -11.7284,287.743 11.7095,-2.62559 28.5083,-8.76733 48.2197,-15.9732 69.502,-25.4079 172.417,-63.0331 279.88,-30.6756 12.0579,3.62953 27.0614,8.46379 42.1111,13.311 55.1622,17.7697 111.041,35.7674 162.251,33.7299 1.30394,-0.153543 2.63858,-0.20315 3.99449,-0.137008l-0.00354331 0.0661418c51.6674,2.50158 108.164,-15.6969 163.927,-33.6603 29.0799,-9.36733 57.9745,-18.6768 86.0564,-25.2295 80.2146,-18.7181 163.641,15.3154 226.238,40.852 23.6965,9.66733 44.1402,18.0083 57.4914,20.7118 0.351969,0.0708662 0.648426,0.314173 0.89882,0.666142 -19.2083,-144.943 -16.0134,-211.853 -12.2114,-291.404 2.53701,-53.0977 5.35158,-111.967 1.66299,-204.53 -6.19961,-155.532 -137.511,-295.277 -269.23,-435.454z"/>
   <path id="_475138056" class="fil0" d="M853.162 605.55c-13.0476,-2.07047 -25.3051,6.82796 -27.3756,19.8756 -2.07047,13.0476 6.82796,25.3051 19.8756,27.3756 0.582284,0.0944883 202.284,33.3626 327.622,-6.43701 25.8047,-8.19449 54.4465,-3.06496 84.8268,10.5201 33.2788,14.8819 68.4119,39.7689 104.228,68.9044 10.2508,8.33505 25.3205,6.78189 33.6555,-3.4689 8.33505,-10.2508 6.78189,-25.3205 -3.4689,-33.6555 -38.6811,-31.4658 -77.1686,-58.5874 -114.914,-75.4666 -40.6418,-18.1748 -80.4379,-24.5669 -118.765,-12.3957 -114.298,36.2941 -305.133,4.83662 -305.684,4.74804z"/>
   <path id="_475137432" class="fil0" d="M1151.67 603.002c-10.3028,8.28426 -11.941,23.354 -3.6567,33.6567 8.28426,10.3028 23.354,11.941 33.6567,3.6567 27.9,-22.4528 73.7575,-48.502 123.865,-61.5839 36.3461,-9.48898 74.6304,-12.0236 108.991,-0.912993 12.5811,4.03819 26.0551,-2.8878 30.0933,-15.4689 4.03819,-12.5811 -2.8878,-26.0551 -15.4689,-30.0933 -43.9701,-14.2181 -91.369,-11.3906 -135.615,0.161811 -57.3225,14.9658 -109.862,44.8288 -141.865,70.5839z"/>
   <g>
    <path id="_475138008" class="fil1" d="M1024 944.721c162.887,0 294.933,132.046 294.933,294.933 0,81.4406 -33.013,155.176 -86.3859,208.547 -53.3717,53.3729 -127.107,86.3859 -208.547,86.3859 -162.887,0 -294.933,-132.047 -294.933,-294.933 0,-162.887 132.046,-294.933 294.933,-294.933zm246.933 294.933c0,-136.377 -110.556,-246.933 -246.933,-246.933 -136.377,0 -246.933,110.556 -246.933,246.933 0,136.376 110.556,246.933 246.933,246.933 68.1898,0 129.926,-27.639 174.61,-72.3237 44.6847,-44.6835 72.3237,-106.42 72.3237,-174.61z"/>
    <path id="_475137912" class="fil1" d="M1021.65 1422.59l0 -36.3248c-18.1973,-2.2748 -32.9481,-6.34134 -44.3209,-12.2008 -11.3728,-5.85945 -21.2303,-15.3709 -29.5016,-28.3984 -8.27127,-13.0961 -13.0961,-29.0197 -14.4059,-47.837l36.5327 -6.89292c2.8252,19.5071 7.78819,33.8445 14.9575,43.0122 10.2012,12.9579 22.4705,20.1272 36.7382,21.574l0 -115.662c-14.9575,-2.82638 -30.1902,-8.61615 -45.8374,-17.3705 -11.5795,-6.47953 -20.4721,-15.4394 -26.7437,-26.8819 -6.27284,-11.4425 -9.37442,-24.4004 -9.37442,-38.9445 0,-25.8484 9.16772,-46.8036 27.4335,-62.7945 12.2693,-10.8213 30.4666,-17.3705 54.5221,-19.7823l0 -17.3705 21.437 0 0 17.3705c21.0921,1.99843 37.9111,8.20276 50.2489,18.5421 15.9225,13.1646 25.4351,31.2933 28.6748,54.3154l-37.5662 5.65158c-2.13662,-14.2677 -6.61772,-25.2272 -13.441,-32.8099 -6.75473,-7.5815 -16.0606,-12.6142 -27.9166,-15.026l0 104.772c18.2669,4.61811 30.3981,8.20158 36.326,10.7528 11.3043,4.963 20.5406,11.028 27.6402,18.1276 7.16812,7.1693 12.6827,15.6473 16.474,25.4351 3.85985,9.85631 5.78977,20.4721 5.78977,31.9134 0,25.2284 -8.06457,46.1823 -24.0555,63.0012 -15.9921,16.8874 -36.7394,25.8484 -62.1745,27.0898l0 36.7382 -21.437 0zm0 -318.244c-14.1295,2.13662 -25.2969,7.78819 -33.4299,16.9559 -8.13426,9.16772 -12.2008,19.989 -12.2008,32.5347 0,12.3378 3.44646,22.7469 10.4091,31.0866 6.96142,8.34095 18.6791,15.0272 35.2217,19.989l0 -100.566zm21.437 251.176c14.1307,-1.72323 25.7799,-7.85788 35.0162,-18.3343 9.23623,-10.4776 13.8543,-23.5051 13.8543,-39.0142 0,-13.1658 -3.30827,-23.7803 -9.7878,-31.7764 -6.54804,-7.99489 -19.5756,-15.1642 -39.0827,-21.5055l0 110.63z"/>
   </g>
  </g>
 </g>
 <rect class="fil2" width="2048" height="2048"/>
</svg>
