<?xml version="1.0" encoding="utf-8"?>
<!-- Generator: Adobe Illustrator 16.0.0, SVG Export Plug-In . SVG Version: 6.00 Build 0)  -->
<!DOCTYPE svg PUBLIC "-//W3C//DTD SVG 1.1//EN" "http://www.w3.org/Graphics/SVG/1.1/DTD/svg11.dtd">
<svg version="1.1" id="Layer_1" xmlns="http://www.w3.org/2000/svg" xmlns:xlink="http://www.w3.org/1999/xlink" x="0px" y="0px"
	 width="128px" height="128px" viewBox="0 0 128 128" enable-background="new 0 0 128 128" xml:space="preserve">
<g>
	<g>
		<path fill="#282D33" d="M63.999,101.696c-20.479,0-37.141-16.911-37.141-37.696c0-20.786,16.662-37.696,37.141-37.696
			c20.48,0,37.14,16.91,37.14,37.696C101.139,84.785,84.479,101.696,63.999,101.696z M63.999,30.313
			c-18.269,0-33.132,15.112-33.132,33.687c0,18.575,14.863,33.687,33.132,33.687S97.131,82.575,97.131,64
			C97.131,45.425,82.268,30.313,63.999,30.313z"/>
	</g>
	<g>
		<path fill="#282D33" d="M64,89.908c-14.081,0-25.536-11.622-25.536-25.908c0-14.286,11.456-25.908,25.536-25.908
			S89.535,49.714,89.535,64C89.535,78.286,78.08,89.908,64,89.908z M64,42.102c-11.87,0-21.526,9.824-21.526,21.898
			c0,12.075,9.657,21.899,21.526,21.899S85.527,76.075,85.527,64C85.527,51.925,75.869,42.102,64,42.102z"/>
	</g>
	<g>
		<g>
			<g>
				<polygon fill="#282D33" points="56.68,13.913 53.824,11.1 64.758,0 75.689,11.1 72.834,13.913 64.758,5.713 				"/>
			</g>
			<g>
				<rect x="62.753" y="4.767" fill="#282D33" width="4.009" height="16.331"/>
			</g>
		</g>
		<g>
			<g>
				<polygon fill="#282D33" points="23.972,33.87 19.962,33.869 19.967,18.214 35.41,18.209 35.411,22.219 23.976,22.222 				"/>
			</g>
			<g>
				
					<rect x="20.884" y="25.339" transform="matrix(0.7016 0.7126 -0.7126 0.7016 28.1331 -12.4958)" fill="#282D33" width="16.205" height="4.01"/>
			</g>
		</g>
		<g>
			<g>
				<polygon fill="#282D33" points="11.874,74.293 0.996,63.23 11.875,52.168 14.732,54.979 6.619,63.23 14.733,71.481 				"/>
			</g>
			<g>
				<rect x="5.686" y="61.224" fill="#282D33" width="16.08" height="4.009"/>
			</g>
		</g>
		<g>
			<g>
				<polygon fill="#282D33" points="34.336,108.7 18.894,108.694 18.89,93.042 22.899,93.04 22.903,104.688 34.337,104.691 				"/>
			</g>
			<g>
				
					<rect x="25.908" y="91.461" transform="matrix(0.7128 0.7014 -0.7014 0.7128 77.8466 9.0175)" fill="#282D33" width="4.009" height="16.207"/>
			</g>
		</g>
		<g>
			<g>
				<polygon fill="#282D33" points="92.588,109.789 92.586,105.779 104.021,105.776 104.027,94.13 108.037,94.132 108.029,109.784 
									"/>
			</g>
			<g>
				
					<rect x="90.908" y="98.651" transform="matrix(0.7017 0.7125 -0.7125 0.7017 101.2512 -40.5166)" fill="#282D33" width="16.205" height="4.01"/>
			</g>
		</g>
		<g>
			<g>
				<polygon fill="#282D33" points="116.121,75.832 113.264,73.021 121.381,64.771 113.264,56.52 116.121,53.708 127.004,64.771 
									"/>
			</g>
			<g>
				<rect x="106.23" y="62.768" fill="#282D33" width="16.08" height="4.01"/>
			</g>
		</g>
		<g>
			<g>
				<polygon fill="#282D33" points="63.241,128 52.307,116.902 55.164,114.089 63.241,122.287 71.318,114.089 74.174,116.902 				
					"/>
			</g>
			<g>
				<rect x="61.235" y="106.9" fill="#282D33" width="4.009" height="16.334"/>
			</g>
		</g>
		<g>
			<g>
				<polygon fill="#282D33" points="105.098,34.96 105.094,23.314 93.658,23.308 93.66,19.299 109.1,19.306 109.107,34.958 				"/>
			</g>
			<g>
				
					<rect x="98.078" y="20.333" transform="matrix(0.7127 0.7015 -0.7015 0.7127 48.7024 -62.0365)" fill="#282D33" width="4.009" height="16.206"/>
			</g>
		</g>
	</g>
	<g>
		<g>
			<path fill="#282D33" d="M65.602,67.292l-5.514-2.189c-2.34-1.508-2.831-3.205-2.831-4.363v-2.337c0-3,2.416-5.442,5.385-5.442
				h2.717c2.969,0,5.385,2.441,5.385,5.442v1.093h-4.01v-1.093c0-0.79-0.617-1.433-1.375-1.433h-2.717
				c-0.759,0-1.376,0.643-1.376,1.433v2.337c0,0.085,0.159,0.42,0.837,0.889l4.953,1.927L65.602,67.292z"/>
		</g>
		<g>
			<path fill="#282D33" d="M65.359,76.117h-2.717c-2.97,0-5.385-2.439-5.385-5.437v-1.098h4.009v1.098
				c0,0.787,0.617,1.427,1.376,1.427h2.717c0.758,0,1.375-0.64,1.375-1.427v-2.343c-0.002-0.07-0.178-0.446-0.898-0.946
				l-4.717-1.844l1.459-3.735l5.277,2.107c2.387,1.543,2.889,3.255,2.889,4.418v2.343C70.744,73.678,68.328,76.117,65.359,76.117z"
				/>
		</g>
		<g>
			<rect x="62.2" y="50.263" fill="#282D33" width="4.009" height="5.131"/>
		</g>
		<g>
			<rect x="62.2" y="73.285" fill="#282D33" width="4.009" height="5.13"/>
		</g>
	</g>
</g>
</svg>
