<svg xmlns="http://www.w3.org/2000/svg" viewBox="0 0 48 48"><defs><style>.cls-1{fill:#201602;}</style></defs><title>Asset 51ldpi</title><g id="Layer_2" data-name="Layer 2"><g id="layer_1-2" data-name="layer 1"><path class="cls-1" d="M32,20a4,4,0,0,1-4-4h2a2,2,0,1,0,2-2,4,4,0,1,1,4-4H34a2,2,0,1,0-2,2,4,4,0,0,1,0,8Z"/><rect class="cls-1" x="31" y="19" width="2" height="3"/><rect class="cls-1" x="31" y="4" width="2" height="3"/><rect class="cls-1" x="38" y="12" width="2" height="2"/><rect class="cls-1" x="24" y="12" width="2" height="2"/><rect class="cls-1" x="12" y="29" width="2" height="2"/><path class="cls-1" d="M35.26,33.68C29,26.84,19.71,29.82,19.32,30l-.64-1.9c.44-.15,10.87-3.53,18.06,4.27Z"/><path class="cls-1" d="M41,36V34a5,5,0,0,0,5-5h2A7,7,0,0,1,41,36Z"/><path class="cls-1" d="M37,48H30a1,1,0,0,1-1-1V45.69a41.3,41.3,0,0,1-10,0V47a1,1,0,0,1-1,1H11a1,1,0,0,1-.79-.38,1,1,0,0,1-.18-.86l.79-3.16a13.06,13.06,0,0,1-5-3.6H2a1,1,0,0,1-1-.88l-1-8a1,1,0,0,1,.24-.78A1,1,0,0,1,1,30H5.61a14.73,14.73,0,0,1,4-3.87L8,19.22a1,1,0,0,1,.27-.92A1,1,0,0,1,9.2,18,17.78,17.78,0,0,1,18,22.63c.94-.2,1.9-.35,2.85-.46l.22,2A27.63,27.63,0,0,0,18,24.7a1,1,0,0,1-.94-.26l-.12-.13a16,16,0,0,0-6.57-3.95l1.33,6a1,1,0,0,1-.44,1.07A12.5,12.5,0,0,0,7,31.51a1,1,0,0,1-.87.49h-4l.75,6H6.32a1,1,0,0,1,.82.42,11.37,11.37,0,0,0,5.23,3.66,1,1,0,0,1,.6,1.17L12.28,46H17V44.56a1,1,0,0,1,1.15-1,39.14,39.14,0,0,0,11.69,0,1,1,0,0,1,1.16,1V46h4.73l-.7-3a1,1,0,0,1,.56-1.14C38.06,40.79,41,38.68,41,35c0-2.77-1.62-5.43-4.57-7.48l1.14-1.64C41.07,28.32,43,31.56,43,35s-2,6.42-5.84,8.37l.81,3.4a1,1,0,0,1-.18.85A1,1,0,0,1,37,48Z"/><path class="cls-1" d="M32,26A13,13,0,1,1,45,13,13,13,0,0,1,32,26ZM32,2A11,11,0,1,0,43,13,11,11,0,0,0,32,2Z"/></g></g></svg>