<svg xmlns="http://www.w3.org/2000/svg" width="48.001" height="48.002" viewBox="0 0 48.001 48.002">
  <g>
    <path d="M47.273,14.2H38.357V.729A.729.729,0,0,0,37.63,0H.727A.728.728,0,0,0,0,.729V40.61a.725.725,0,0,0,.453.672.713.713,0,0,0,.274.055.729.729,0,0,0,.521-.219l7.961-8.146h7.527v7.17a.727.727,0,0,0,.727.727H40l6.756,6.914a.729.729,0,0,0,.521.219.746.746,0,0,0,.274-.053A.732.732,0,0,0,48,47.275V14.925A.728.728,0,0,0,47.273,14.2ZM8.9,31.516a.723.723,0,0,0-.52.219l-6.927,7.09V1.456H36.9V31.517H8.9ZM46.545,45.489l-5.722-5.855a.723.723,0,0,0-.52-.219H18.19V32.972H37.63a.728.728,0,0,0,.727-.729V15.651h8.188Z" fill="currentColor"/>
    <path d="M30.915,13.749l-3.68-.584c-.038-.1-.078-.191-.12-.287l2.2-3.023a.726.726,0,0,0-.074-.941L26.6,6.275a.729.729,0,0,0-.941-.074L22.635,8.4c-.1-.043-.191-.082-.287-.121l-.587-3.689a.724.724,0,0,0-.716-.611l-1.869-.008-1.864.008a.726.726,0,0,0-.716.611l-.588,3.689c-.095.037-.19.078-.287.119L12.745,6.242a.742.742,0,0,0-1,.039L9.116,8.914a.728.728,0,0,0-.074.941l2.2,3.023c-.042.1-.082.191-.12.287l-3.687.586a.729.729,0,0,0-.613.715l-.007,1.871L6.819,18.2a.734.734,0,0,0,.624.723l3.676.584c.038.1.078.191.12.287l-2.2,3.025a.728.728,0,0,0,.074.941l2.635,2.637a.725.725,0,0,0,.942.074l3.025-2.2c.1.041.191.082.289.121l.588,3.684a.728.728,0,0,0,.716.613l1.869.006,1.86-.006a.731.731,0,0,0,.722-.623l.585-3.676c.1-.037.192-.078.288-.121l3.024,2.2a.726.726,0,0,0,.942-.074l2.635-2.637a.727.727,0,0,0,.074-.941l-2.2-3.025c.042-.1.082-.191.12-.287l3.69-.586a.728.728,0,0,0,.613-.715l.006-1.871-.006-1.859A.733.733,0,0,0,30.915,13.749Zm-.829,3.828-3.5.557a.725.725,0,0,0-.576.488,7.2,7.2,0,0,1-.386.922.726.726,0,0,0,.062.752l2.083,2.873-1.757,1.756-2.869-2.082a.721.721,0,0,0-.754-.063,7.469,7.469,0,0,1-.924.387.728.728,0,0,0-.487.574l-.557,3.5-1.241,0-1.246,0-.557-3.5a.72.72,0,0,0-.488-.574,6.821,6.821,0,0,1-.917-.385.732.732,0,0,0-.759.059l-2.872,2.084-1.757-1.758L12.667,20.3a.724.724,0,0,0,.06-.756,6.611,6.611,0,0,1-.381-.916.726.726,0,0,0-.577-.49l-3.5-.557,0-1.24,0-1.246,3.5-.557a.729.729,0,0,0,.577-.49,6.681,6.681,0,0,1,.382-.918.724.724,0,0,0-.061-.756L10.583,9.5l1.757-1.76,2.872,2.082a.723.723,0,0,0,.75.063,7.6,7.6,0,0,1,.925-.385.722.722,0,0,0,.489-.576l.558-3.5,1.241,0,1.246,0,.557,3.5a.726.726,0,0,0,.489.576,7.225,7.225,0,0,1,.925.387.725.725,0,0,0,.75-.063l2.87-2.084L27.769,9.5,25.685,12.37a.731.731,0,0,0-.063.752,7.2,7.2,0,0,1,.387.924.727.727,0,0,0,.576.488l3.5.557,0,1.24Z" fill="currentColor"/>
    <path d="M19.178,12.43a3.9,3.9,0,1,0,3.9,3.9A3.906,3.906,0,0,0,19.178,12.43Zm0,6.348a2.446,2.446,0,1,1,2.446-2.445A2.449,2.449,0,0,1,19.178,18.778Z" fill="currentColor"/>
  </g>
</svg>
