<svg id="Layer_1" data-name="Layer 1" xmlns="http://www.w3.org/2000/svg" viewBox="0 0 128 128" ><title>USERS</title><path d="M89.064,62.921a34.5,34.5,0,1,0-50.128,0A21.842,21.842,0,0,0,22.44,84v37.5a1.75,1.75,0,0,0,1.75,1.75h79.62a1.75,1.75,0,0,0,1.75-1.75V84A21.842,21.842,0,0,0,89.064,62.921ZM64,8.25a31,31,0,1,1-31,31A31.035,31.035,0,0,1,64,8.25Zm38.06,111.5H25.94V84A18.3,18.3,0,0,1,42.112,65.9a34.43,34.43,0,0,0,43.776,0A18.3,18.3,0,0,1,102.06,84Z"/><path d="M30.192,90.688a1.75,1.75,0,0,0-1.75,1.75V111.5a1.75,1.75,0,0,0,3.5,0V92.438A1.75,1.75,0,0,0,30.192,90.688Z"/></svg>